<svg id="icon_Home" data-name="icon Home" xmlns="http://www.w3.org/2000/svg" xmlns:xlink="http://www.w3.org/1999/xlink" width="26.078" height="26.078" viewBox="0 0 26.078 26.078">
  <defs>
    <clipPath id="clip-path">
      <rect width="12" height="12" fill="none"/>
    </clipPath>
  </defs>
  <g id="Ellipse_87" data-name="Ellipse 87" fill="#fff" stroke="#4d4d4d" stroke-width="1">
    <circle cx="13.039" cy="13.039" r="13.039" stroke="none"/>
    <circle cx="13.039" cy="13.039" r="12.539" fill="none"/>
  </g>
  <g id="Repeat_Grid_31" data-name="Repeat Grid 31" transform="translate(7 7)" clip-path="url(#clip-path)">
    <g transform="translate(-240 -25)">
      <g id="Rectangle_16977" data-name="Rectangle 16977" transform="translate(240 25)" fill="none" stroke="#4d4d4d" stroke-width="1">
        <rect width="5" height="5" rx="1" stroke="none"/>
        <rect x="0.5" y="0.5" width="4" height="4" rx="0.5" fill="none"/>
      </g>
    </g>
    <g transform="translate(-233 -25)">
      <g id="Rectangle_16977-2" data-name="Rectangle 16977" transform="translate(240 25)" fill="none" stroke="#4d4d4d" stroke-width="1">
        <rect width="5" height="5" rx="1" stroke="none"/>
        <rect x="0.5" y="0.5" width="4" height="4" rx="0.5" fill="none"/>
      </g>
    </g>
    <g transform="translate(-240 -18)">
      <g id="Rectangle_16977-3" data-name="Rectangle 16977" transform="translate(240 25)" fill="none" stroke="#4d4d4d" stroke-width="1">
        <rect width="5" height="5" rx="1" stroke="none"/>
        <rect x="0.5" y="0.5" width="4" height="4" rx="0.5" fill="none"/>
      </g>
    </g>
    <g transform="translate(-233 -18)">
      <g id="Rectangle_16977-4" data-name="Rectangle 16977" transform="translate(240 25)" fill="none" stroke="#4d4d4d" stroke-width="1">
        <rect width="5" height="5" rx="1" stroke="none"/>
        <rect x="0.5" y="0.5" width="4" height="4" rx="0.5" fill="none"/>
      </g>
    </g>
  </g>
</svg>
