<svg xmlns="http://www.w3.org/2000/svg" width="31" height="31" viewBox="0 0 31 31">
  <g id="AvatarCircleNeutral" transform="translate(0.5 0.5)">
    <path id="AvatarCircleNeutral-2" data-name="AvatarCircleNeutral" d="M15,30A15,15,0,0,1,4.393,4.393,15,15,0,1,1,25.606,25.606,14.9,14.9,0,0,1,15,30ZM10.167,15.957h0c.319,2.443,1.349,3.25,1.36,3.258L11.5,20.779a33.96,33.96,0,0,1-3.426,1.537q-.477.2-.934.381c-.59.24-1.148.467-1.667.691a12.694,12.694,0,0,0,19.049,0c-.526-.228-1.092-.458-1.692-.7q-.444-.181-.91-.372A32.54,32.54,0,0,1,18.5,20.779l-.026-1.563c.011-.008,1.039-.8,1.359-3.259a.522.522,0,0,0,.143.02c.617,0,1.191-1.047,1.224-1.581a3.128,3.128,0,0,0-.416-1.876.477.477,0,0,0-.355-.165.542.542,0,0,0-.109.012,16.65,16.65,0,0,0,.223-2.881C20.359,7.667,19.4,4.615,15,4.615S9.638,7.667,9.461,9.487a16.49,16.49,0,0,0,.221,2.881.543.543,0,0,0-.109-.012.478.478,0,0,0-.356.165A3.128,3.128,0,0,0,8.8,14.4c.033.534.607,1.581,1.223,1.581a.521.521,0,0,0,.142-.02Z" transform="translate(0 0)" fill="#35aff8" stroke="rgba(0,0,0,0)" stroke-width="1"/>
  </g>
</svg>
